<svg width="10" height="10" viewBox="0 0 10 10" fill="none" xmlns="http://www.w3.org/2000/svg">
<path d="M10 9V2C10 1.4485 9.50167 1 8.88889 1H7.77778V0H6.66667V1H3.33333V0H2.22222V1H1.11111C0.498333 1 0 1.4485 0 2V9C0 9.5515 0.498333 10 1.11111 10H8.88889C9.50167 10 10 9.5515 10 9ZM3.33333 8H2.22222V7H3.33333V8ZM3.33333 6H2.22222V5H3.33333V6ZM5.55556 8H4.44444V7H5.55556V8ZM5.55556 6H4.44444V5H5.55556V6ZM7.77778 8H6.66667V7H7.77778V8ZM7.77778 6H6.66667V5H7.77778V6ZM8.88889 3.5H1.11111V2.5H8.88889V3.5Z" fill="#DC8719"/>
</svg>
